<svg width="60" height="39" viewBox="0 0 60 39" fill="none" xmlns="http://www.w3.org/2000/svg">
<path d="M57.9961 0.916742C57.2196 0.458319 56.2824 0.157874 55.2844 0.047383C54.2863 -0.0631082 53.2648 0.020488 52.3283 0.289275L3.45189 14.2924C2.40663 14.5975 1.51688 15.1211 0.900732 15.7935C0.28458 16.4659 -0.028835 17.2553 0.00208632 18.0571C0.0330076 18.8588 0.406803 19.635 1.07386 20.2824C1.74091 20.9299 2.66968 21.4181 3.7369 21.6823L13.6235 24.1223L19.1341 37.0537C19.209 37.2265 19.3177 37.3909 19.457 37.5422C19.4781 37.5654 19.5079 37.5827 19.5304 37.6053C19.6913 37.7646 19.8858 37.9054 20.107 38.0228C20.17 38.0569 20.2302 38.0888 20.2975 38.119C20.5564 38.2409 20.8431 38.33 21.1449 38.3824L21.1772 38.3844L21.1955 38.3899C21.377 38.4161 21.5617 38.4294 21.7469 38.4296C21.7647 38.4296 21.7805 38.4236 21.7981 38.4233C22.0776 38.4199 22.3546 38.3857 22.6193 38.3221C22.6809 38.3072 22.7337 38.2823 22.7934 38.2643C22.9908 38.2063 23.1778 38.1319 23.3506 38.0426C23.4889 37.9599 23.6273 37.8772 23.7657 37.7946L31.1355 32.0206L42.1274 38.063C43.0951 38.5976 44.2862 38.8882 45.5126 38.8889C46.7977 38.8877 48.0431 38.5731 49.0401 37.9977C50.0371 37.4224 50.7251 36.6213 50.9886 35.7288L59.8871 4.73079C60.0888 4.03313 60.0193 3.30968 59.6862 2.63786C59.3532 1.96604 58.7689 1.37112 57.9961 0.916742ZM22.8283 24.7384C22.4501 25.0057 22.1916 25.3463 22.0852 25.7175L21.2411 28.6283L19.1027 23.6097L30.19 19.5126L22.8283 24.7384ZM45.4701 35.003L32.4805 27.8625C31.9371 27.5646 31.2554 27.4228 30.5712 27.4655C29.8871 27.5083 29.2508 27.7324 28.789 28.0931L26.4287 29.9418L27.2629 27.065L46.5807 13.3567C47.0418 13.03 47.3227 12.5968 47.3726 12.1358C47.4225 11.6747 47.238 11.2162 46.8526 10.8433C46.4672 10.4704 45.9063 10.2078 45.2716 10.1031C44.6369 9.99831 43.9703 10.0583 43.3926 10.2722L15.6683 20.5154L5.51073 17.8777L54.5443 3.95773L45.4701 35.003Z" fill="white"/>
</svg>
