<svg width="60" height="60" viewBox="0 0 60 60" fill="none" xmlns="http://www.w3.org/2000/svg">
<path d="M3.48226 60C3.21848 59.9063 2.95471 59.8282 2.69094 59.7345C1.03796 59.1566 0.0180391 57.8135 0.0180391 56.1111C0.000454241 53.4717 0.0180391 50.8479 0.0180391 48.2085C0.0180391 45.6784 0.0180391 43.1327 0.0180391 40.6026C0.0180391 40.3839 0.000454243 40.1653 0.0532088 39.9623C0.141133 39.5562 0.440076 39.3063 0.897282 39.2751C1.38966 39.2282 1.75894 39.4312 1.89962 39.8529C1.96996 40.0872 1.98754 40.3527 1.98754 40.6026C1.98754 45.0537 1.98754 49.5048 1.98754 53.9559C1.98754 54.1901 1.98754 54.4088 1.98754 54.7524C9.14458 51.2384 16.1961 47.8024 23.3356 44.3196C16.3016 38.0256 9.30285 31.7941 2.32166 25.5626C2.23373 25.5938 2.16339 25.625 2.07547 25.6719C2.0403 25.9843 1.98754 26.2966 1.98754 26.609C1.98754 29.6701 1.98754 32.7312 1.98754 35.8079C1.98754 36.745 1.65343 37.1823 0.967622 37.1667C0.299397 37.151 0.0180391 36.7606 0.0180391 35.8235C0.0180391 32.7624 0.035624 29.7013 0.000454242 26.6246C-0.0171306 25.2971 0.475246 24.2038 1.58309 23.2824C2.69094 22.3609 3.76361 21.4082 4.81871 20.4399C5.01214 20.2525 5.1704 19.9401 5.1704 19.6902C5.20557 17.3163 5.18799 14.9268 5.18799 12.5529C5.18799 10.1477 6.98164 8.57031 9.68971 8.55469C12.3978 8.53908 15.0883 8.53908 17.7963 8.55469C18.2711 8.55469 18.6052 8.44537 18.9569 8.14863C21.5419 5.86842 24.1621 3.60383 26.7646 1.32362C28.7869 -0.441205 31.2136 -0.441205 33.2358 1.32362C35.8384 3.58821 38.441 5.8528 41.0435 8.14863C41.3776 8.44537 41.7293 8.57031 42.2041 8.55469C44.877 8.53908 47.5675 8.53908 50.2404 8.55469C53.054 8.55469 54.8125 10.1165 54.8125 12.5997C54.8125 13.1776 54.8301 13.7711 54.8125 14.3489C54.7949 14.9112 54.4432 15.2704 53.8805 15.286C53.3002 15.3016 52.8781 14.9424 52.8605 14.3645C52.843 13.7398 52.8605 13.1151 52.843 12.4904C52.8254 11.1316 51.9285 10.3039 50.3811 10.3039C44.5429 10.3039 38.6871 10.3039 32.849 10.3039C25.2171 10.3039 17.6029 10.3039 9.97107 10.3039C8.01915 10.3039 7.19266 11.0223 7.19266 12.7403C7.19266 17.4881 7.19266 22.2203 7.17508 26.9682C7.17508 27.343 7.29817 27.6241 7.59711 27.8896C13.3122 32.9498 19.0273 38.01 24.7248 43.0702C25.0589 43.367 25.2875 43.3826 25.6743 43.1795C26.4481 42.7735 27.2394 42.383 28.0483 42.0238C29.3144 41.446 30.6157 41.4147 31.8994 41.9926C32.761 42.383 33.6051 42.7891 34.4492 43.2264C34.7833 43.3982 34.9767 43.367 35.2405 43.1327C41.0083 38.01 46.7762 32.903 52.544 27.7647C52.7375 27.5929 52.843 27.2493 52.843 26.9838C52.8605 24.157 52.8605 21.3301 52.8605 18.4877C52.8605 18.2534 52.8781 18.0191 52.9661 17.8005C53.1419 17.41 53.4936 17.2382 53.9684 17.2851C54.4608 17.3319 54.7773 17.6131 54.8125 18.0504C54.8476 18.5814 54.7773 19.1124 54.8476 19.6278C54.8828 19.9089 55.0059 20.2369 55.2169 20.4243C56.3072 21.4238 57.415 22.3921 58.5405 23.3448C59.5252 24.1882 60 25.2034 60 26.4372C59.9824 36.2764 60 46.1157 60 55.955C60 58.0009 58.9097 59.266 56.694 59.8594C56.6413 59.8751 56.5885 59.9219 56.5358 59.9531C52.6319 59.9531 48.7105 59.9531 44.8067 59.9531C44.3319 59.6876 43.9802 59.3284 44.1912 58.7974C44.4022 58.2664 44.9122 58.1571 45.4749 58.2039C45.6508 58.2196 45.8266 58.2039 46.0025 58.2039C49.2029 58.2039 52.4209 58.2039 55.6214 58.2039C56.8699 58.2039 57.714 57.6105 57.8898 56.6578C57.8019 56.6109 57.714 56.5484 57.626 56.5016C48.8512 52.2223 40.0764 47.943 31.3191 43.6637C30.4223 43.2264 29.5958 43.2576 28.6989 43.6949C21.1726 47.3808 13.6287 51.0666 6.08482 54.7368C4.76595 55.3771 3.44709 56.0331 2.12822 56.6734C2.4975 57.751 3.25365 58.2039 4.64286 58.2039C16.583 58.2039 28.5055 58.2039 40.4456 58.2039C41.0083 58.2039 41.5183 58.2664 41.7293 58.813C41.9403 59.3597 41.5886 59.7033 41.1139 59.9688C28.5407 60 16.0203 60 3.48226 60ZM36.8407 44.4134C43.8219 47.818 50.8383 51.254 57.8898 54.6899C58.136 53.6904 58.0305 26.0936 57.7843 25.6875C50.8207 31.919 43.8395 38.1506 36.8407 44.4134ZM38.5465 8.53908C38.4761 8.41413 38.4585 8.35166 38.4058 8.32043C36.1373 6.33696 33.8689 4.33787 31.5829 2.38563C30.5981 1.54227 29.332 1.5735 28.3472 2.43249C26.1667 4.32225 23.9862 6.22763 21.8057 8.13301C21.6826 8.24234 21.5771 8.36728 21.4188 8.55469C27.1866 8.53908 32.8138 8.53908 38.5465 8.53908ZM5.15282 25.6563C5.15282 24.6411 5.15282 23.704 5.15282 22.7982C4.60769 23.2824 4.06256 23.7509 3.62294 24.1413C4.08014 24.6099 4.5901 25.1096 5.15282 25.6563ZM56.4127 24.2663C55.8851 23.7665 55.34 23.2824 54.8476 22.8294C54.8476 23.7197 54.8476 24.6567 54.8476 25.6407C55.4455 25.1253 55.9731 24.6567 56.4127 24.2663Z" fill="white"/>
<path d="M32.4445 27.9833C29.3144 30.4041 25.5864 28.3582 24.9885 25.0784C24.672 23.3761 25.0413 21.8143 26.4481 20.5336C27.9076 19.2061 29.9299 18.9562 31.7587 19.8308C31.8466 19.8777 31.9521 19.9089 32.0752 19.9557C32.0928 19.7996 32.1104 19.6902 32.128 19.5809C32.2511 19.0187 32.6204 18.7219 33.2007 18.7532C33.7634 18.7844 34.0975 19.128 34.0975 19.7215C34.0975 21.8924 34.0975 24.0476 34.0799 26.2185C34.0799 26.7808 34.0799 27.3899 34.7657 27.6085C35.4691 27.8428 36.1198 27.5773 36.6121 27.1087C37.5617 26.1717 37.8255 25.0003 37.8782 23.7977C38.0365 20.9553 35.5746 18.1909 32.2511 17.3476C27.7845 16.2231 23.1773 18.6907 22.2277 22.7045C21.2606 26.7651 24.4258 30.6696 29.1034 31.2006C29.3144 31.2319 29.543 31.2475 29.754 31.2631C30.4223 31.3256 30.8091 31.6848 30.774 32.2002C30.7388 32.7312 30.264 33.0592 29.5606 33.0123C27.5559 32.903 25.7447 32.3251 24.1269 31.2787C20.6802 29.0297 19.2559 25.0316 20.5923 21.4238C21.9639 17.7536 25.7271 15.3329 30.0706 15.3329C34.3613 15.3329 38.1948 17.7849 39.4961 21.3926C40.2698 23.5166 39.9005 25.5626 38.7399 27.4992C38.0365 28.6549 36.9111 29.3109 35.4164 29.4358C34.0799 29.5295 33.1479 28.9673 32.4445 27.9833ZM32.1807 24.032C32.0577 23.5479 32.0049 23.0325 31.8115 22.5639C31.5125 21.8143 30.9674 21.2364 30.0178 21.0959C28.9979 20.9553 28.2242 21.3145 27.6087 22.0173C26.4833 23.2824 26.6591 25.5157 27.9604 26.6558C28.9803 27.5617 30.3168 27.4992 31.2312 26.4996C31.8642 25.7968 32.1104 24.9535 32.1807 24.032Z" fill="white"/>
</svg>
