<svg width="46" height="60" viewBox="0 0 46 60" fill="none" xmlns="http://www.w3.org/2000/svg">
<path d="M43.4852 28.4572L43.4849 28.4578C41.5264 33.5868 38.7121 38.2978 35.6898 42.9372C32.1231 48.4004 28.2464 53.633 24.1274 58.7185C23.6928 59.2533 23.1975 59.4875 22.7502 59.4995C22.3078 59.5114 21.8291 59.3083 21.4123 58.8012C15.5215 51.4835 10.003 43.9636 5.44753 35.8043C3.59728 32.4863 1.9534 29.0995 1.02334 25.4642L1.02282 25.4622C-0.0432204 21.3652 0.583828 17.3702 2.33475 13.555C5.61836 6.42934 11.2909 2.10365 19.2306 0.797744C31.1324 -1.15846 42.5122 6.7353 44.5606 18.2141L44.5613 18.2179C44.707 18.9994 44.7912 19.7798 44.8776 20.5819C44.9206 20.981 44.9642 21.3854 45.0163 21.798C44.944 24.1016 44.3143 26.2942 43.4852 28.4572ZM31.4831 20.0417C31.4831 15.342 27.5687 11.5135 22.7787 11.5135C17.9288 11.5135 13.971 15.2834 13.971 20.0084C13.971 24.7138 17.9262 28.5208 22.7633 28.5032C27.5282 28.4856 31.4831 24.681 31.4831 20.0417Z" stroke="white"/>
</svg>
