<svg width="24" height="24" viewBox="0 0 24 24" fill="none" xmlns="http://www.w3.org/2000/svg">
<path d="M0 6.60569C0.0380463 6.32703 0.0570695 6.04836 0.107798 5.77603C0.24096 5.09204 0.545331 4.49039 1.03359 3.99639C1.68038 3.33774 2.3018 2.65375 2.99298 2.04576C4.05827 1.12744 5.206 1.13377 6.22057 2.08375C7.30489 3.09707 8.34483 4.16106 9.35305 5.25037C10.1076 6.0547 10.1013 7.28968 9.37208 8.11933C8.83309 8.73366 8.23703 9.30365 7.65365 9.87997C7.54585 9.98764 7.51415 10.0636 7.59024 10.2156C8.17362 11.3936 8.99161 12.3943 9.8857 13.3379C10.7988 14.3132 11.8007 15.1809 12.9294 15.8965C13.2528 16.0992 13.5952 16.2702 13.9503 16.4729C14.3371 16.0802 14.7112 15.6939 15.0917 15.3202C15.3453 15.0669 15.6053 14.8136 15.878 14.5856C16.696 13.9079 17.9325 13.8952 18.6998 14.6236C19.8221 15.6876 20.9128 16.7832 21.9781 17.9105C22.7644 18.7465 22.7771 20.0068 22.0161 20.8618C21.3123 21.6535 20.5704 22.4261 19.7841 23.1354C18.9661 23.8764 17.9388 24.0728 16.8482 23.9778C14.8127 23.8068 13.0055 22.9834 11.2554 22.0145C9.10575 20.8238 7.19075 19.3228 5.51672 17.5242C3.46856 15.3266 1.77549 12.9009 0.716539 10.07C0.355099 9.11365 0.0697516 8.132 0.0317053 7.09335C0.0317053 7.04268 0.0126821 6.98568 0 6.93502C0 6.82735 0 6.71969 0 6.60569ZM17.1652 22.6414C18.0466 22.6478 18.6871 22.3881 19.2134 21.8308C19.6953 21.3241 20.1963 20.8238 20.6909 20.3235C20.786 20.2285 20.8747 20.1335 20.9572 20.0258C21.2806 19.6078 21.2679 19.1708 20.9318 18.7655C20.8494 18.6705 20.7669 18.5818 20.6782 18.4932C20.1392 17.9485 19.5939 17.4102 19.0549 16.8719C18.6871 16.5045 18.3193 16.1245 17.9388 15.7636C17.5203 15.3646 17.0574 15.3582 16.6199 15.7319C16.5375 15.8015 16.4614 15.8839 16.3789 15.9599C15.8399 16.4919 15.3073 17.0365 14.7683 17.5622C14.3815 17.9422 13.9503 18.0118 13.4811 17.7712C13.1513 17.6065 12.8279 17.4419 12.5109 17.2519C11.0968 16.4095 9.86668 15.3392 8.75065 14.1359C7.76779 13.0719 6.8737 11.9383 6.26496 10.6083C5.94791 9.90531 6.01766 9.55698 6.56933 9.01865C7.13368 8.46766 7.70438 7.923 8.24971 7.34668C8.6492 6.92235 8.63651 6.49169 8.26873 6.04836C8.21166 5.9787 8.14191 5.90903 8.0785 5.83937C7.1971 4.95271 6.30935 4.06606 5.42794 3.18574C4.85725 2.61575 4.3563 2.60941 3.78561 3.17307C3.24662 3.70506 2.69495 4.23072 2.18132 4.78805C1.93402 5.06038 1.70574 5.37704 1.57258 5.7127C1.28723 6.43469 1.36967 7.18835 1.52185 7.92933C1.75647 9.06932 2.18766 10.1396 2.70129 11.1783C3.60806 13.0086 4.78749 14.6616 6.15082 16.1752C8.56042 18.8478 11.4139 20.8871 14.8 22.1475C15.599 22.4388 16.4297 22.6098 17.1652 22.6414Z" fill="url(#paint0_linear_862_259)"/>
<path d="M13.3733 0.000119122C13.6713 0.0634515 14.0327 0.126784 14.3878 0.215449C18.1291 1.20977 20.9001 3.43273 22.7327 6.82102C23.3541 7.97367 23.7536 9.21498 23.9819 10.507C24.0643 10.9503 23.8614 11.2733 23.4619 11.3556C23.0878 11.4316 22.7707 11.21 22.6502 10.792C22.4283 10.0193 22.2634 9.22765 21.9781 8.48033C21.2742 6.63735 20.1202 5.11104 18.611 3.85073C17.3047 2.76774 15.8336 2.00142 14.1913 1.57076C13.8425 1.4821 13.4874 1.41876 13.1387 1.3301C12.7709 1.2351 12.5616 0.905772 12.6187 0.551111C12.6821 0.240782 12.9801 -0.00621412 13.3733 0.000119122Z" fill="url(#paint1_linear_862_259)"/>
<path d="M12.4348 5.03504C12.4348 4.59805 12.8153 4.28139 13.2591 4.36372C15.599 4.80705 17.3935 6.0547 18.649 8.06867C19.15 8.87932 19.467 9.76597 19.6446 10.7033C19.7207 11.1086 19.5241 11.4633 19.15 11.5583C18.7885 11.6533 18.4334 11.4253 18.313 11.0263C18.1608 10.5133 18.053 9.97497 17.831 9.48731C16.8862 7.42901 15.2883 6.17503 13.0689 5.7127C12.6504 5.6367 12.4285 5.39604 12.4348 5.03504Z" fill="url(#paint2_linear_862_259)"/>
<defs>
<linearGradient id="paint0_linear_862_259" x1="1.11759e-08" y1="5.25" x2="24" y2="18" gradientUnits="userSpaceOnUse">
<stop stop-color="#2B7BF8"/>
<stop offset="1" stop-color="#E56DCF"/>
</linearGradient>
<linearGradient id="paint1_linear_862_259" x1="1.11759e-08" y1="5.25" x2="24" y2="18" gradientUnits="userSpaceOnUse">
<stop stop-color="#2B7BF8"/>
<stop offset="1" stop-color="#E56DCF"/>
</linearGradient>
<linearGradient id="paint2_linear_862_259" x1="1.11759e-08" y1="5.25" x2="24" y2="18" gradientUnits="userSpaceOnUse">
<stop stop-color="#2B7BF8"/>
<stop offset="1" stop-color="#E56DCF"/>
</linearGradient>
</defs>
</svg>
