<svg width="1180" height="458" viewBox="0 0 1180 458" fill="none" xmlns="http://www.w3.org/2000/svg">
<g clip-path="url(#clip0_867_29)">
<path d="M-393.333 458C-721.111 408.09 -458.889 184.961 -393.333 158.538C-327.777 132.115 -131.111 299.461 0.000305701 299.461C131.111 299.461 262.223 158.538 393.334 158.538C524.445 158.538 655.556 299.461 786.667 299.461C917.778 299.461 1048.89 158.538 1180 158.538C1311.11 158.538 1507.78 249.551 1573.33 299.461C1638.89 349.372 1901.11 431.577 1573.33 458" fill="white"/>
<path d="M-393.333 158.538C-327.778 182.025 -131.111 299.461 -0.000153855 299.461C131.111 299.461 262.222 158.538 393.333 158.538C524.444 158.538 655.555 299.461 786.667 299.461C917.778 299.461 1048.89 158.538 1180 158.538C1311.11 158.538 1507.78 275.974 1573.33 299.461" stroke="url(#paint0_linear_867_29)" stroke-width="12" stroke-linecap="round" stroke-linejoin="round"/>
</g>
<defs>
<linearGradient id="paint0_linear_867_29" x1="-42.6615" y1="258.5" x2="1225.09" y2="319.087" gradientUnits="userSpaceOnUse">
<stop stop-color="#2B7BF8"/>
<stop offset="1" stop-color="#E56DCF"/>
</linearGradient>
<clipPath id="clip0_867_29">
<rect width="1180" height="458" fill="white"/>
</clipPath>
</defs>
</svg>
